<svg width="50" height="50" fill="none" xmlns="http://www.w3.org/2000/svg"><path d="M30.665 23.267L18.022 42.45a1 1 0 0 0 .835 1.55h25.286a1 1 0 0 0 .835-1.55L32.335 23.267a1 1 0 0 0-1.67 0z" fill="#EEE"/><path d="M13.7 31.067L5.2 42.4A1 1 0 0 0 6 44h17a1 1 0 0 0 .8-1.6l-8.5-11.333a1 1 0 0 0-1.6 0z" fill="#EEE"/><circle cx="17.5" cy="18.5" r="5.5" fill="#EEE"/><mask id="a" fill="#fff"><rect width="50" height="50" rx="2"/></mask><rect width="50" height="50" rx="2" stroke="#EEE" stroke-width="6" stroke-linejoin="round" mask="url(#a)"/></svg>